<svg width="30" height="31" viewBox="0 0 30 31" fill="none" xmlns="http://www.w3.org/2000/svg">
<path fill-rule="evenodd" clip-rule="evenodd" d="M22.425 21.6199C23.119 20.9574 24.0405 20.5861 25 20.5824C27.0711 20.5824 28.75 22.2613 28.75 24.3324C28.75 26.4035 27.0711 28.0824 25 28.0824C22.9289 28.0824 21.25 26.4035 21.25 24.3324C21.2377 24.1701 21.2377 24.0072 21.25 23.8449L9.5 17.4199C8.8393 18.5954 7.59839 19.3256 6.25 19.3324C4.17893 19.3324 2.5 17.6535 2.5 15.5824C2.5 13.5113 4.17893 11.8324 6.25 11.8324C7.59839 11.8392 8.8393 12.5695 9.5 13.7449L21.25 7.31991C21.2377 7.15764 21.2377 6.99467 21.25 6.83241C21.2435 5.05215 22.4896 3.5127 24.2321 3.14819C25.9747 2.78367 27.7334 3.69457 28.441 5.32815C29.1486 6.96174 28.6102 8.86771 27.1524 9.88952C25.6945 10.9113 23.7192 10.7673 22.425 9.54491L11.3625 15.5824L22.425 21.6199ZM26.25 6.83241C26.25 6.14205 25.6904 5.58241 25 5.58241C24.3096 5.58241 23.75 6.14205 23.75 6.83241C23.75 7.52276 24.3096 8.08241 25 8.08241C25.6904 8.08241 26.25 7.52276 26.25 6.83241ZM6.25 16.8324C5.55964 16.8324 5 16.2728 5 15.5824C5 14.8921 5.55964 14.3324 6.25 14.3324C6.94036 14.3324 7.5 14.8921 7.5 15.5824C7.5 16.2728 6.94036 16.8324 6.25 16.8324ZM23.75 24.3324C23.75 25.0228 24.3096 25.5824 25 25.5824C25.6904 25.5824 26.25 25.0228 26.25 24.3324C26.25 23.6421 25.6904 23.0824 25 23.0824C24.3096 23.0824 23.75 23.6421 23.75 24.3324Z" fill="#231F20"/>
</svg>
