<svg width="30" height="31" viewBox="0 0 30 31" fill="none" xmlns="http://www.w3.org/2000/svg">
<path fill-rule="evenodd" clip-rule="evenodd" d="M19.575 18.3949L27.2875 26.1075H27.325C27.684 26.4635 27.7931 27.0006 27.6016 27.4685C27.4101 27.9364 26.9556 28.2428 26.45 28.245C26.116 28.2436 25.7964 28.1085 25.5625 27.8699L17.85 20.1575L13.3625 24.645C12.875 25.1296 12.0876 25.1296 11.6 24.645L9.30003 22.3449C8.5925 21.6363 8.37607 20.5739 8.75003 19.645L3.85003 14.6449C3.14395 13.9413 2.74707 12.9855 2.74707 11.9887C2.74707 10.9919 3.14395 10.0361 3.85003 9.33245L8.85003 4.33245C9.55366 3.62637 10.5095 3.22949 11.5063 3.22949C12.5031 3.22949 13.4589 3.62637 14.1625 4.33245L19.0625 9.33245C19.9841 8.94892 21.0456 9.1504 21.7625 9.84495L24.0625 12.1449C24.5472 12.6325 24.5472 13.4199 24.0625 13.9074L19.575 18.3949ZM11.0375 20.5825L12.5 21.995L21.4125 13.0825L20 11.62L19.8125 11.8324C19.5778 12.0691 19.2583 12.2022 18.925 12.2022C18.5917 12.2022 18.2722 12.0691 18.0375 11.8324L12.3375 6.20745C11.85 5.7228 11.0626 5.7228 10.575 6.20745L5.57503 11.2075C5.09037 11.695 5.09037 12.4824 5.57503 12.97L11.25 18.62C11.4867 18.8547 11.6198 19.1742 11.6198 19.5075C11.6198 19.8407 11.4867 20.1602 11.25 20.395L11.0375 20.5825Z" fill="#231F20"/>
</svg>
