<svg width="30" height="31" viewBox="0 0 30 31" fill="none" xmlns="http://www.w3.org/2000/svg">
<path fill-rule="evenodd" clip-rule="evenodd" d="M26.1625 7.60755L25.5 5.64505C24.9685 4.14173 23.5445 3.1389 21.95 3.14505H8.05002C6.45552 3.1389 5.03151 4.14173 4.50002 5.64505L3.83752 7.60755C2.99315 8.27576 2.50052 9.29326 2.50002 10.37V11.2075C2.49537 12.9256 3.5052 14.4844 5.07502 15.1825C5.02507 15.31 4.99962 15.4457 5.00002 15.5825V24.3325C5.00002 26.4036 6.67895 28.0825 8.75002 28.0825H21.25C23.3211 28.0825 25 26.4036 25 24.3325V15.5825C25.0004 15.4457 24.975 15.31 24.925 15.1825C26.4948 14.4844 27.5047 12.9256 27.5 11.2075V10.37C27.4995 9.29326 27.0069 8.27576 26.1625 7.60755ZM6.8625 6.43252C7.04124 5.9008 7.55231 5.55328 8.1125 5.58252H21.95C22.5102 5.55328 23.0213 5.9008 23.2 6.43252L23.325 6.83252H6.7375L6.8625 6.43252ZM17.5 11.2075V9.33252H12.5V11.2075C12.5 12.2431 13.3395 13.0825 14.375 13.0825H15.625C16.6605 13.0825 17.5 12.2431 17.5 11.2075ZM5 11.2075V10.37C5 9.79702 5.4645 9.33252 6.0375 9.33252H10V11.2075C10 12.2431 9.16053 13.0825 8.125 13.0825H6.875C5.83946 13.0825 5 12.2431 5 11.2075ZM13.75 21.8325V25.5825H16.25V21.8325C16.25 21.1422 15.6904 20.5825 15 20.5825C14.3096 20.5825 13.75 21.1422 13.75 21.8325ZM22.5 24.3325C22.5 25.0229 21.9404 25.5825 21.25 25.5825H18.75V21.8325C18.75 19.7614 17.0711 18.0825 15 18.0825C12.9289 18.0825 11.25 19.7614 11.25 21.8325V25.5825H8.75C8.05964 25.5825 7.5 25.0229 7.5 24.3325V15.5825H8.125C9.30429 15.5881 10.4341 15.109 11.25 14.2575C12.0659 15.109 13.1957 15.5881 14.375 15.5825H15.625C16.8043 15.5881 17.9341 15.109 18.75 14.2575C19.5659 15.109 20.6957 15.5881 21.875 15.5825H22.5V24.3325ZM23.125 13.0825C24.1605 13.0825 25 12.2431 25 11.2075V10.37C25 9.79702 24.5355 9.33252 23.9625 9.33252H20V11.2075C20 12.2431 20.8395 13.0825 21.875 13.0825H23.125Z" fill="#231F20"/>
</svg>
