<svg width="45" height="46" viewBox="0 0 45 46" fill="none" xmlns="http://www.w3.org/2000/svg">
<rect y="0.289551" width="45" height="45" rx="8" fill="url(#paint0_linear_2724_369)"/>
<path d="M16.5316 16.4968L16.4942 15.7477L16.4942 15.7477L16.5316 16.4968ZM29.4683 16.4968L29.5056 15.7477L29.5056 15.7477L29.4683 16.4968ZM32.3086 19.2432L33.056 19.1807L33.056 19.1807L32.3086 19.2432ZM32.3039 27.3157L33.0512 27.3787V27.3787L32.3039 27.3157ZM29.5102 30.057L29.4613 29.3086L29.4613 29.3086L29.5102 30.057ZM16.4897 30.0571L16.4407 30.8055L16.4407 30.8055L16.4897 30.0571ZM13.6962 27.3171L14.4435 27.2537L13.6962 27.3171ZM13.6915 19.2418L12.9441 19.1789L12.9441 19.1789L13.6915 19.2418ZM16.5689 17.2458C19.3362 17.1079 21.4775 17.0396 22.9988 17.0396V15.5396C21.4404 15.5396 19.2701 15.6093 16.4942 15.7477L16.5689 17.2458ZM22.9988 17.0396C24.5202 17.0396 26.6622 17.1079 29.431 17.2459L29.5056 15.7477C26.7283 15.6094 24.5573 15.5396 22.9988 15.5396V17.0396ZM29.431 17.2459C30.5568 17.302 31.4673 18.1824 31.5612 19.3056L33.056 19.1807C32.8995 17.3086 31.3819 15.8412 29.5056 15.7477L29.431 17.2459ZM31.5612 19.3056C31.6868 20.8079 31.7488 22.1224 31.7488 23.2515H33.2488C33.2488 22.0701 33.184 20.7124 33.056 19.1807L31.5612 19.3056ZM31.7488 23.2515C31.7488 24.3944 31.6852 25.7273 31.5565 27.2526L33.0512 27.3787C33.1824 25.8238 33.2488 24.4473 33.2488 23.2515H31.7488ZM31.5565 27.2526C31.4629 28.3619 30.5722 29.236 29.4613 29.3086L29.5592 30.8054C31.4107 30.6843 32.8952 29.2275 33.0512 27.3787L31.5565 27.2526ZM29.4613 29.3086C27.1037 29.4628 24.9498 29.5396 22.9988 29.5396V31.0396C24.9883 31.0396 27.1754 30.9613 29.5592 30.8054L29.4613 29.3086ZM22.9988 29.5396C21.048 29.5396 18.8949 29.4628 16.5386 29.3087L16.4407 30.8055C18.8232 30.9613 21.0095 31.0396 22.9988 31.0396V29.5396ZM16.5386 29.3087C15.4281 29.2361 14.5376 28.3625 14.4435 27.2537L12.9489 27.3804C13.1056 29.2285 14.5899 30.6844 16.4407 30.8055L16.5386 29.3087ZM14.4435 27.2537C14.3131 25.7165 14.2488 24.3833 14.2488 23.2515H12.7488C12.7488 24.4372 12.816 25.8144 12.9489 27.3804L14.4435 27.2537ZM14.2488 23.2515C14.2488 22.1332 14.3116 20.8185 14.4388 19.3046L12.9441 19.1789C12.8144 20.7216 12.7488 22.08 12.7488 23.2515H14.2488ZM14.4388 19.3046C14.5332 18.1818 15.4436 17.3019 16.5689 17.2458L16.4942 15.7477C14.6187 15.8412 13.1014 17.3076 12.9441 19.1789L14.4388 19.3046Z" fill="white"/>
<path d="M22.1649 25.8501L21.7514 25.2244L21.7512 25.2245L22.1649 25.8501ZM25.4637 23.6698L25.8772 24.2955L25.8772 24.2955L25.4637 23.6698ZM25.5849 23.076L26.2106 22.6624L26.2106 22.6624L25.5849 23.076ZM25.4665 22.9566L25.048 23.579L25.0482 23.5791L25.4665 22.9566ZM22.1677 20.7385L22.5862 20.1161L22.5862 20.1161L22.1677 20.7385ZM21.5729 20.855L20.9505 20.4365L20.9504 20.4368L21.5729 20.855ZM20.75 21.0941V25.4926H22.25V21.0941H20.75ZM20.75 25.4926C20.75 26.1434 21.2777 26.6711 21.9285 26.6711V25.1711C22.1061 25.1711 22.25 25.315 22.25 25.4926H20.75ZM21.9285 26.6711C22.1596 26.6711 22.3857 26.6032 22.5786 26.4757L21.7512 25.2245C21.8039 25.1896 21.8656 25.1711 21.9285 25.1711V26.6711ZM22.5784 26.4758L25.8772 24.2955L25.0502 23.0441L21.7514 25.2244L22.5784 26.4758ZM25.8772 24.2955C26.4203 23.9366 26.5694 23.2054 26.2106 22.6624L24.9592 23.4895C24.8614 23.3415 24.902 23.1421 25.0502 23.0441L25.8772 24.2955ZM26.2106 22.6624C26.1249 22.5328 26.0142 22.4211 25.8848 22.3341L25.0482 23.5791C25.0127 23.5553 24.9825 23.5248 24.9592 23.4896L26.2106 22.6624ZM25.885 22.3342L22.5862 20.1161L21.7492 21.3609L25.048 23.579L25.885 22.3342ZM22.5862 20.1161C22.046 19.7529 21.3137 19.8964 20.9505 20.4365L22.1953 21.2735C22.0963 21.4208 21.8966 21.46 21.7492 21.3609L22.5862 20.1161ZM20.9504 20.4368C20.8199 20.631 20.75 20.8598 20.75 21.0941H22.25C22.25 21.1582 22.2309 21.2205 22.1954 21.2733L20.9504 20.4368Z" fill="white"/>
<defs>
<linearGradient id="paint0_linear_2724_369" x1="0" y1="45.2895" x2="45" y2="45.2895" gradientUnits="userSpaceOnUse">
<stop stop-color="#73E0A9"/>
<stop offset="1" stop-color="#5B68DF"/>
</linearGradient>
</defs>
</svg>
